# xmcd
#
# Track frame offsets: 
#        150
#        16629
#        36544
#
# Disc length: 706 seconds
#
# Revision: 1
# Processed by: cddbd v1.5.1PL2 Copyright (c) Steve Scherf et al.
# Submitted via: ExactAudioCopy v0.95b4
#
DISCID=1a02c003
DTITLE=Snook - Längst Fram I Taxin (single)
DYEAR=2006
DGENRE=Hip-Hop
TTITLE0=Längst Fram I Taxin
TTITLE1=Längst Fram I Taxin (Remix med Timbuktu)
TTITLE2=Längst Fram I Taxin (Instrumental)
EXTD=Midnight Oil\n\nThe Metro, Boston\n\n12th May 1988\n\n\nAudience 
EXTD=recording from the Diesel and Dust tour.\n\nIncludes a brief rend
EXTD=ition of the Australian classic\n"The Redback On The Toilet Seat"
EXTD=\n\nThere is some artwork included here - it is designed to\ncom
EXTD=bine this show with the Toronto show from a few days\nearlier (ht
EXTD=tp://www.dimeadozen.org/torrents-details.php?id=61421]\nover thre
EXTD=e discs.\n\n\nSetlist:\n\nBullroarer\nProgress\nOnly The Strong\n
EXTD=Put Down That Weapon\nSell My Soul\nDreamworld\nBest Of Both Worl
EXTD=ds\nShort Memory\nKosciusko\nThe Redback On The Toilet Seat\nUS F
EXTD=orces\nHercules\nArctic World\nWarakurna\nThe Dead Heart\nPower A
EXTD=nd The Passion\nRead About It\nBeds Are Burning\nSometimes
EXTT0=
EXTT1=
EXTT2=
PLAYORDER=
